<?xml version="1.0" encoding="UTF-8"?>
<svg width="32" height="32" version="1.1" viewBox="0 0 32 32" xmlns="http://www.w3.org/2000/svg">
 <g>
  <rect transform="rotate(-90)" x="-28" width="24" height="32" rx="3" ry="3" fill="#77c10d" stroke-dashoffset="12.8" stroke-linejoin="bevel" stroke-opacity=".6" stroke-width="2" style="paint-order:stroke markers fill"/>
  <g fill="#fff">
   <rect x="18" y="12" width="10" height="3" rx="1" ry="1" stroke-dashoffset="12.8" stroke-linejoin="bevel" stroke-opacity=".6" stroke-width="2" style="paint-order:stroke markers fill"/>
   <rect x="18" y="17" width="10" height="3" rx="1" ry="1" stroke-dashoffset="12.8" stroke-linejoin="bevel" stroke-opacity=".6" stroke-width="2" style="paint-order:stroke markers fill"/>
   <g transform="matrix(.0267 0 0 .0273 3.17 8)" stroke-width="37">
    <g fill="#fff" stroke-width="37">
     <path d="m256 0c-74.4 0-135 60.6-135 135s60.6 135 135 135 135-60.6 135-135-60.6-135-135-135z" fill="#fff" stroke-width="37"/>
    </g>
    <g fill="#fff" stroke-width="37">
     <path d="m424 358c-37-37.5-86-58.2-138-58.2h-60c-52 0-101 20.7-138 58.2-36.8 37.3-57 86.6-57 139 0 8.28 6.72 15 15 15h420c8.28 0 15-6.72 15-15 0-52.2-20.3-101-57-139z" fill="#fff" stroke-width="37"/>
    </g>
   </g>
  </g>
 </g>
</svg>
