<?xml version="1.0" encoding="UTF-8"?>
<svg width="32" height="32" version="1.1" viewBox="0 0 32 32" xmlns="http://www.w3.org/2000/svg" xmlns:xlink="http://www.w3.org/1999/xlink">
 <defs>
  <linearGradient id="Ld6sqrtcxMyckEl6xeDdMa" x1="9.99" x2="40.6" y1="9.99" y2="40.6" gradientTransform="matrix(.8 0 0 .8 -3.2 -3.2)" gradientUnits="userSpaceOnUse">
   <stop stop-color="#2aa4f4" offset="0"/>
   <stop stop-color="#007ad9" offset="1"/>
  </linearGradient>
 </defs>
 <path d="m16 0c-8.84 0-16 7.16-16 16 0 8.84 7.16 16 16 16s16-7.16 16-16c0-8.84-7.16-16-16-16z" fill="url(#Ld6sqrtcxMyckEl6xeDdMa)"/>
 <path d="m18.2 20.2h4.14l0.65-4.21h-4.79v-2.3c0-1.75 0.571-3.3 2.21-3.3h2.63v-3.67c-0.462-0.0624-1.44-0.198-3.28-0.198-3.85 0-6.11 2.03-6.11 6.67v2.8h-3.96v4.21h3.96v11.6c0.784 0.117 1.58 0.197 2.39 0.197 0.737 0 1.46-0.0672 2.17-0.163z" fill="#fff"/>
</svg>
