<?xml version="1.0" encoding="UTF-8"?>
<svg width="24" height="24" version="1.1" viewBox="0 0 24 24" xml:space="preserve" xmlns="http://www.w3.org/2000/svg"><path d="m12.6 3c-5.21 0-9.43 4.22-9.43 9.43h-3.14l4.08 4.08 0.0733 0.147 4.23-4.22h-3.14c0-4.05 3.28-7.33 7.33-7.33 4.05 0 7.33 3.28 7.33 7.33 0 4.05-3.28 7.33-7.33 7.33-2.02 0-3.86-0.828-5.18-2.16l-1.49 1.49c1.71 1.71 4.05 2.77 6.66 2.77 5.21 0 9.43-4.22 9.43-9.43 0-5.21-4.22-9.43-9.43-9.43zm-1.05 5.24v5.24l4.45 2.64 0.807-1.34-3.69-2.19v-4.35z" fill="#fff"/></svg>
