<?xml version="1.0" encoding="UTF-8" standalone="no"?>
<svg
   width="24"
   height="24"
   version="1.1"
   viewBox="0 0 24 24"
   xml:space="preserve"
   id="svg861"
   sodipodi:docname="news.svg"
   inkscape:version="1.1 (c68e22c387, 2021-05-23)"
   xmlns:inkscape="http://www.inkscape.org/namespaces/inkscape"
   xmlns:sodipodi="http://sodipodi.sourceforge.net/DTD/sodipodi-0.dtd"
   xmlns="http://www.w3.org/2000/svg"
   xmlns:svg="http://www.w3.org/2000/svg"><defs
     id="defs865" /><sodipodi:namedview
     id="namedview863"
     pagecolor="#ffffff"
     bordercolor="#666666"
     borderopacity="1.0"
     inkscape:pageshadow="2"
     inkscape:pageopacity="0.0"
     inkscape:pagecheckerboard="true"
     showgrid="false"
     inkscape:zoom="23.291667"
     inkscape:cx="21.939177"
     inkscape:cy="17.087657"
     inkscape:window-width="2009"
     inkscape:window-height="1212"
     inkscape:window-x="3954"
     inkscape:window-y="106"
     inkscape:window-maximized="0"
     inkscape:current-layer="svg861" /><g
     id="g1095"
     transform="matrix(0.24819549,0,0,0.24819549,-0.40963338,-0.65106024)"
     style="fill:#ffffff;fill-opacity:1;stroke-width:4.02908"><g
       id="path1077"
       style="stroke-width:4.02908"><path
         id="path2261"
         style="color:#000000;stroke-width:1.04167;-inkscape-stroke:none"
         d="M 14.671676,0.64014667 C 14.278241,0.62690517 13.917238,0.81708217 13.695114,1.1186624 L 3.1621094,16.179688 l 3.4648436,5.033203 4.793932,-1.377673 0.32402,0.75295 c 0.147913,0.513477 0.621055,0.855468 1.136719,0.855468 0.109168,0 0.218634,-0.01595 0.326172,-0.04687 l 4.062699,-0.956075 c 0.622291,-0.178559 0.985987,-0.841133 0.808593,-1.462891 l -0.263671,-0.921875 5.819349,-1.573499 c 0.367428,-0.101915 0.664604,-0.377514 0.794922,-0.736328 v -0.002 c 0.128863,-0.357609 0.07867,-0.757498 -0.138672,-1.072266 L 15.618942,1.1499124 C 15.403875,0.83710537 15.05059,0.64842677 14.671676,0.64014667 Z m -0.06055,3.21679693 6.791215,10.7914944 -7.378906,2.052734 -4.8867192,1.357422 -4.0800782,1.134765 -0.5703125,-0.828125 z"
         transform="matrix(3.8679209,0,0,3.8679209,3.5850974,0.8453343)"
         sodipodi:nodetypes="ccccccsccccccccccccccccc" /></g></g><path
     style="fill:#ffffff;fill-opacity:1;stroke-width:0.999996"
     d="M 14.837541,7.1551091 C 14.53182,6.9137981 14.171708,6.8572001 14.034411,7.0292778 L 8.4878416,13.98472 c -0.1373279,0.172053 -9.02e-5,0.507507 0.3062212,0.749186 0.1271292,0.09975 0.2638224,0.16879 0.3897115,0.202128 0.176881,0.04684 0.3331748,0.02426 0.4134201,-0.07629 L 15.144029,7.9043683 c 0.137025,-0.1721541 -4.38e-4,-0.5076487 -0.306487,-0.749258 z"
     id="path1079" /><path
     id="rect5587"
     style="fill:#ffffff;stroke:none;stroke-width:1;stroke-linecap:round;stroke-linejoin:round;stroke-dashoffset:12.8;paint-order:stroke markers fill"
     d="M 0.53543749,15.232552 1.9150214,14.23357 c 0.5285443,-0.382748 1.2146698,-0.328936 1.5383894,0.120643 l 4.0837056,5.671416 c 0.3237041,0.449562 0.1588082,1.119626 -0.3697396,1.502369 L 5.7877929,22.52698 C 5.2592485,22.909728 4.5731371,22.855936 4.249417,22.406356 L 0.16571128,16.734939 C -0.15800692,16.285358 0.0068893,15.615295 0.53543749,15.232552 Z" /></svg>
