<?xml version="1.0" encoding="UTF-8"?>
<svg width="32" height="32" version="1.1" viewBox="0 0 32 32" xmlns="http://www.w3.org/2000/svg">
 <path d="m32 6.08c-1.18 0.522-2.44 0.875-3.77 1.03 1.36-0.813 2.4-2.1 2.89-3.63-1.27 0.752-2.67 1.3-4.17 1.59-1.2-1.28-2.9-2.07-4.79-2.07-3.63 0-6.57 2.94-6.57 6.57 0 0.515 0.0582 1.02 0.17 1.5-5.46-0.274-10.3-2.89-13.5-6.86-0.565 0.97-0.889 2.1-0.889 3.3 0 2.28 1.16 4.29 2.92 5.46-1.08-0.0341-2.09-0.329-2.97-0.821-5e-4 0.0274-5e-4 0.0549-5e-4 0.0825 0 3.18 2.26 5.83 5.27 6.44-0.551 0.15-1.13 0.23-1.73 0.23-0.423 0-0.834-0.0411-1.24-0.118 0.835 2.61 3.26 4.51 6.13 4.56-2.25 1.76-5.08 2.81-8.15 2.81-0.53 0-1.05-0.031-1.57-0.0916 2.91 1.86 6.36 2.95 10.1 2.95 12.1 0 18.7-10 18.7-18.7 0-0.285-0.0063-0.568-0.019-0.849 1.28-0.926 2.4-2.08 3.28-3.4" fill="#55acee"/>
</svg>
