<?xml version="1.0" encoding="UTF-8"?>
<svg width="32" height="32" version="1.1" viewBox="0 0 32 32" xmlns="http://www.w3.org/2000/svg" xmlns:xlink="http://www.w3.org/1999/xlink">
 <g transform="scale(.0625)" stroke-width="16">
  <g stroke-width="16">
   <path d="m490 114c-13.9-24.7-29-29.2-59.6-31-30.7-2.08-108-2.94-175-2.94-66.9 0-144 0.864-175 2.91-30.6 1.76-45.7 6.27-59.7 31-14.3 24.7-21.7 67.2-21.7 142v0.096 0.096 0.064c0 74.5 7.36 117 21.7 142 14 24.7 29.1 29.2 59.7 31.3 30.7 1.79 108 2.85 175 2.85 66.8 0 144-1.06 175-2.82 30.7-2.08 45.8-6.56 59.6-31.3 14.4-24.4 21.7-67.2 21.7-142v-0.16-0.096c0-74.8-7.3-117-21.8-142z" fill="#f44336"/>
   <polygon points="192 352 192 160 352 256" fill="#fafafa"/>
  </g>
 </g>
</svg>
